<mxfile host="Electron" modified="2024-04-22T01:45:27.558Z" agent="Mozilla/5.0 (Windows NT 10.0; Win64; x64) AppleWebKit/537.36 (KHTML, like Gecko) draw.io/24.2.5 Chrome/120.0.6099.109 Electron/28.1.0 Safari/537.36" etag="pD7-9AfXfcAJ1PQKbQMg" version="24.2.5" type="device">
  <diagram name="Page-1" id="yrAbRubzdi-CzPaMwEWl">
    <mxGraphModel dx="874" dy="484" grid="1" gridSize="10" guides="1" tooltips="1" connect="1" arrows="1" fold="1" page="0" pageScale="1" pageWidth="850" pageHeight="1100" math="0" shadow="0">
      <root>
        <mxCell id="0" />
        <mxCell id="1" parent="0" />
        <mxCell id="GUyP2fEIKevfzm-Tqjwe-67" value="handleTreatment()" style="shape=umlFrame;whiteSpace=wrap;html=1;pointerEvents=0;strokeColor=#FF00FF;width=120;height=32;" parent="1" vertex="1">
          <mxGeometry x="1180" y="1112" width="1380" height="868" as="geometry" />
        </mxCell>
        <mxCell id="GUyP2fEIKevfzm-Tqjwe-68" value="&lt;span style=&quot;font-size: 11px; text-align: left; text-wrap: nowrap;&quot;&gt;simulateRound() x4&lt;/span&gt;" style="shape=umlFrame;whiteSpace=wrap;html=1;pointerEvents=0;strokeColor=#FF00FF;width=120;height=30;" parent="1" vertex="1">
          <mxGeometry x="1230" y="1184" width="1290" height="756" as="geometry" />
        </mxCell>
        <mxCell id="GUyP2fEIKevfzm-Tqjwe-69" value="Electrodes" style="shape=umlLifeline;perimeter=lifelinePerimeter;whiteSpace=wrap;html=1;container=1;dropTarget=0;collapsible=0;recursiveResize=0;outlineConnect=0;portConstraint=eastwest;newEdgeStyle={&quot;edgeStyle&quot;:&quot;elbowEdgeStyle&quot;,&quot;elbow&quot;:&quot;vertical&quot;,&quot;curved&quot;:0,&quot;rounded&quot;:0};" parent="1" vertex="1">
          <mxGeometry x="2190" y="762" width="100" height="1238" as="geometry" />
        </mxCell>
        <mxCell id="GUyP2fEIKevfzm-Tqjwe-70" value="" style="html=1;points=[[0,0,0,0,5],[0,1,0,0,-5],[1,0,0,0,5],[1,1,0,0,-5]];perimeter=orthogonalPerimeter;outlineConnect=0;targetShapes=umlLifeline;portConstraint=eastwest;newEdgeStyle={&quot;curved&quot;:0,&quot;rounded&quot;:0};" parent="GUyP2fEIKevfzm-Tqjwe-69" vertex="1">
          <mxGeometry x="45" y="432" width="10" height="558" as="geometry" />
        </mxCell>
        <mxCell id="GUyP2fEIKevfzm-Tqjwe-71" value="Datamodel" style="shape=umlLifeline;perimeter=lifelinePerimeter;whiteSpace=wrap;html=1;container=1;dropTarget=0;collapsible=0;recursiveResize=0;outlineConnect=0;portConstraint=eastwest;newEdgeStyle={&quot;edgeStyle&quot;:&quot;elbowEdgeStyle&quot;,&quot;elbow&quot;:&quot;vertical&quot;,&quot;curved&quot;:0,&quot;rounded&quot;:0};" parent="1" vertex="1">
          <mxGeometry x="2340" y="764" width="100" height="1236" as="geometry" />
        </mxCell>
        <mxCell id="GUyP2fEIKevfzm-Tqjwe-72" value="" style="html=1;points=[[0,0,0,0,5],[0,1,0,0,-5],[1,0,0,0,5],[1,1,0,0,-5]];perimeter=orthogonalPerimeter;outlineConnect=0;targetShapes=umlLifeline;portConstraint=eastwest;newEdgeStyle={&quot;curved&quot;:0,&quot;rounded&quot;:0};" parent="GUyP2fEIKevfzm-Tqjwe-71" vertex="1">
          <mxGeometry x="45" y="850" width="10" height="330" as="geometry" />
        </mxCell>
        <mxCell id="GUyP2fEIKevfzm-Tqjwe-73" value="" style="shape=umlLifeline;perimeter=lifelinePerimeter;whiteSpace=wrap;html=1;container=1;dropTarget=0;collapsible=0;recursiveResize=0;outlineConnect=0;portConstraint=eastwest;newEdgeStyle={&quot;curved&quot;:0,&quot;rounded&quot;:0};participant=umlActor;" parent="1" vertex="1">
          <mxGeometry x="1450" y="762" width="20" height="1238" as="geometry" />
        </mxCell>
        <mxCell id="GUyP2fEIKevfzm-Tqjwe-74" value="" style="html=1;points=[[0,0,0,0,5],[0,1,0,0,-5],[1,0,0,0,5],[1,1,0,0,-5]];perimeter=orthogonalPerimeter;outlineConnect=0;targetShapes=umlLifeline;portConstraint=eastwest;newEdgeStyle={&quot;curved&quot;:0,&quot;rounded&quot;:0};" parent="GUyP2fEIKevfzm-Tqjwe-73" vertex="1">
          <mxGeometry x="5" y="70" width="10" height="1120" as="geometry" />
        </mxCell>
        <mxCell id="GUyP2fEIKevfzm-Tqjwe-75" value="NFS" style="shape=umlLifeline;perimeter=lifelinePerimeter;whiteSpace=wrap;html=1;container=1;dropTarget=0;collapsible=0;recursiveResize=0;outlineConnect=0;portConstraint=eastwest;newEdgeStyle={&quot;edgeStyle&quot;:&quot;elbowEdgeStyle&quot;,&quot;elbow&quot;:&quot;vertical&quot;,&quot;curved&quot;:0,&quot;rounded&quot;:0};" parent="1" vertex="1">
          <mxGeometry x="1968" y="762" width="105" height="1238" as="geometry" />
        </mxCell>
        <mxCell id="GUyP2fEIKevfzm-Tqjwe-76" value="" style="html=1;points=[[0,0,0,0,5],[0,1,0,0,-5],[1,0,0,0,5],[1,1,0,0,-5]];perimeter=orthogonalPerimeter;outlineConnect=0;targetShapes=umlLifeline;portConstraint=eastwest;newEdgeStyle={&quot;curved&quot;:0,&quot;rounded&quot;:0};" parent="GUyP2fEIKevfzm-Tqjwe-75" vertex="1">
          <mxGeometry x="47" y="90" width="10" height="1090" as="geometry" />
        </mxCell>
        <mxCell id="GUyP2fEIKevfzm-Tqjwe-77" value="endSession()" style="html=1;align=left;spacingLeft=2;endArrow=block;rounded=0;edgeStyle=orthogonalEdgeStyle;curved=0;rounded=0;" parent="GUyP2fEIKevfzm-Tqjwe-75" edge="1">
          <mxGeometry x="-0.0091" relative="1" as="geometry">
            <mxPoint x="57" y="1050.0000000000002" as="sourcePoint" />
            <Array as="points">
              <mxPoint x="85" y="1050" />
              <mxPoint x="85" y="1080" />
            </Array>
            <mxPoint x="57" y="1080.0000000000002" as="targetPoint" />
            <mxPoint as="offset" />
          </mxGeometry>
        </mxCell>
        <mxCell id="GUyP2fEIKevfzm-Tqjwe-78" value="UI&lt;div&gt;(mainwindow)&lt;/div&gt;" style="shape=umlLifeline;perimeter=lifelinePerimeter;whiteSpace=wrap;html=1;container=1;dropTarget=0;collapsible=0;recursiveResize=0;outlineConnect=0;portConstraint=eastwest;newEdgeStyle={&quot;edgeStyle&quot;:&quot;elbowEdgeStyle&quot;,&quot;elbow&quot;:&quot;vertical&quot;,&quot;curved&quot;:0,&quot;rounded&quot;:0};" parent="1" vertex="1">
          <mxGeometry x="1610" y="760" width="100" height="1240" as="geometry" />
        </mxCell>
        <mxCell id="GUyP2fEIKevfzm-Tqjwe-79" value="" style="html=1;points=[[0,0,0,0,5],[0,1,0,0,-5],[1,0,0,0,5],[1,1,0,0,-5]];perimeter=orthogonalPerimeter;outlineConnect=0;targetShapes=umlLifeline;portConstraint=eastwest;newEdgeStyle={&quot;curved&quot;:0,&quot;rounded&quot;:0};" parent="GUyP2fEIKevfzm-Tqjwe-78" vertex="1">
          <mxGeometry x="45" y="82" width="10" height="1108" as="geometry" />
        </mxCell>
        <mxCell id="GUyP2fEIKevfzm-Tqjwe-80" value="User" style="text;html=1;align=center;verticalAlign=middle;resizable=0;points=[];autosize=1;strokeColor=none;fillColor=none;" parent="1" vertex="1">
          <mxGeometry x="1435" y="730" width="50" height="30" as="geometry" />
        </mxCell>
        <mxCell id="GUyP2fEIKevfzm-Tqjwe-81" value="Powers on device" style="html=1;verticalAlign=bottom;endArrow=block;curved=0;rounded=0;" parent="1" target="GUyP2fEIKevfzm-Tqjwe-79" edge="1">
          <mxGeometry x="0.0032" width="80" relative="1" as="geometry">
            <mxPoint x="1465" y="852" as="sourcePoint" />
            <mxPoint x="1615" y="852" as="targetPoint" />
            <mxPoint as="offset" />
          </mxGeometry>
        </mxCell>
        <mxCell id="GUyP2fEIKevfzm-Tqjwe-82" value="powerOnDevice()" style="html=1;verticalAlign=bottom;endArrow=block;curved=0;rounded=0;" parent="1" edge="1">
          <mxGeometry x="-0.417" width="80" relative="1" as="geometry">
            <mxPoint x="1665" y="871" as="sourcePoint" />
            <mxPoint x="2015" y="871" as="targetPoint" />
            <mxPoint as="offset" />
          </mxGeometry>
        </mxCell>
        <mxCell id="GUyP2fEIKevfzm-Tqjwe-83" value="Turns on device" style="html=1;verticalAlign=bottom;endArrow=open;dashed=1;endSize=8;curved=0;rounded=0;" parent="1" target="GUyP2fEIKevfzm-Tqjwe-79" edge="1">
          <mxGeometry x="-0.5641" relative="1" as="geometry">
            <mxPoint x="2015" y="907.0000000000001" as="sourcePoint" />
            <mxPoint x="1660" y="907" as="targetPoint" />
            <mxPoint as="offset" />
          </mxGeometry>
        </mxCell>
        <mxCell id="GUyP2fEIKevfzm-Tqjwe-84" value="Displays Readiness" style="html=1;verticalAlign=bottom;endArrow=open;dashed=1;endSize=8;curved=0;rounded=0;" parent="1" source="GUyP2fEIKevfzm-Tqjwe-79" edge="1">
          <mxGeometry relative="1" as="geometry">
            <mxPoint x="1615" y="932" as="sourcePoint" />
            <mxPoint x="1465" y="932" as="targetPoint" />
          </mxGeometry>
        </mxCell>
        <mxCell id="GUyP2fEIKevfzm-Tqjwe-85" value="Starts session" style="html=1;verticalAlign=bottom;endArrow=block;curved=0;rounded=0;" parent="1" edge="1">
          <mxGeometry width="80" relative="1" as="geometry">
            <mxPoint x="1465" y="967" as="sourcePoint" />
            <mxPoint x="1655" y="967" as="targetPoint" />
          </mxGeometry>
        </mxCell>
        <mxCell id="GUyP2fEIKevfzm-Tqjwe-86" value="sessionStart()" style="html=1;verticalAlign=bottom;endArrow=block;curved=0;rounded=0;" parent="1" source="GUyP2fEIKevfzm-Tqjwe-79" edge="1">
          <mxGeometry x="-0.417" width="80" relative="1" as="geometry">
            <mxPoint x="1660" y="983" as="sourcePoint" />
            <mxPoint x="2015" y="983" as="targetPoint" />
            <mxPoint as="offset" />
          </mxGeometry>
        </mxCell>
        <mxCell id="GUyP2fEIKevfzm-Tqjwe-87" value="handleTreatment()" style="html=1;verticalAlign=bottom;endArrow=block;curved=0;rounded=0;" parent="1" edge="1">
          <mxGeometry x="-0.6175" width="80" relative="1" as="geometry">
            <mxPoint x="2015.0000000000002" y="1037" as="sourcePoint" />
            <mxPoint x="1465" y="1037" as="targetPoint" />
            <mxPoint as="offset" />
          </mxGeometry>
        </mxCell>
        <mxCell id="GUyP2fEIKevfzm-Tqjwe-88" value="return data" style="html=1;verticalAlign=bottom;endArrow=open;dashed=1;endSize=8;curved=0;rounded=0;" parent="1" edge="1">
          <mxGeometry relative="1" as="geometry">
            <mxPoint x="1465" y="1632" as="sourcePoint" />
            <mxPoint x="2015" y="1632" as="targetPoint" />
          </mxGeometry>
        </mxCell>
        <mxCell id="GUyP2fEIKevfzm-Tqjwe-89" value="append Data to" style="html=1;verticalAlign=bottom;endArrow=block;curved=0;rounded=0;" parent="1" edge="1">
          <mxGeometry x="-0.7917" y="-8" width="80" relative="1" as="geometry">
            <mxPoint x="2385" y="1881.9999999999998" as="sourcePoint" />
            <mxPoint x="1665" y="1882" as="targetPoint" />
            <mxPoint as="offset" />
          </mxGeometry>
        </mxCell>
        <mxCell id="GUyP2fEIKevfzm-Tqjwe-90" value="displayProgress()" style="html=1;verticalAlign=bottom;endArrow=block;curved=0;rounded=0;" parent="1" source="GUyP2fEIKevfzm-Tqjwe-79" edge="1">
          <mxGeometry width="80" relative="1" as="geometry">
            <mxPoint x="1615" y="1071" as="sourcePoint" />
            <mxPoint x="1465" y="1071" as="targetPoint" />
          </mxGeometry>
        </mxCell>
        <mxCell id="GUyP2fEIKevfzm-Tqjwe-91" value="display session info" style="html=1;verticalAlign=bottom;endArrow=block;curved=0;rounded=0;" parent="1" edge="1">
          <mxGeometry width="80" relative="1" as="geometry">
            <mxPoint x="1655" y="1906" as="sourcePoint" />
            <mxPoint x="1465" y="1906" as="targetPoint" />
          </mxGeometry>
        </mxCell>
        <mxCell id="GUyP2fEIKevfzm-Tqjwe-92" value="simulateRound()" style="html=1;align=left;spacingLeft=2;endArrow=block;rounded=0;edgeStyle=orthogonalEdgeStyle;curved=0;rounded=0;" parent="1" edge="1">
          <mxGeometry x="-0.0091" relative="1" as="geometry">
            <mxPoint x="2025" y="1134" as="sourcePoint" />
            <Array as="points">
              <mxPoint x="2053" y="1133.9999999999998" />
              <mxPoint x="2053" y="1163.9999999999998" />
            </Array>
            <mxPoint x="2025" y="1164" as="targetPoint" />
            <mxPoint as="offset" />
          </mxGeometry>
        </mxCell>
        <mxCell id="GUyP2fEIKevfzm-Tqjwe-93" value="simulateEEGSite()" style="html=1;verticalAlign=bottom;endArrow=block;curved=0;rounded=0;" parent="1" edge="1">
          <mxGeometry width="80" relative="1" as="geometry">
            <mxPoint x="2025" y="1214" as="sourcePoint" />
            <mxPoint x="2235" y="1214" as="targetPoint" />
          </mxGeometry>
        </mxCell>
        <mxCell id="GUyP2fEIKevfzm-Tqjwe-94" value="read brain waves" style="html=1;verticalAlign=bottom;endArrow=block;curved=0;rounded=0;" parent="1" edge="1">
          <mxGeometry x="0.7792" width="80" relative="1" as="geometry">
            <mxPoint x="2235" y="1603.0000000000002" as="sourcePoint" />
            <mxPoint x="1465" y="1603.0000000000002" as="targetPoint" />
            <mxPoint as="offset" />
          </mxGeometry>
        </mxCell>
        <mxCell id="GUyP2fEIKevfzm-Tqjwe-95" value="calculate baseline" style="html=1;align=left;spacingLeft=2;endArrow=block;rounded=0;edgeStyle=orthogonalEdgeStyle;curved=0;rounded=0;" parent="1" edge="1">
          <mxGeometry x="-0.0141" relative="1" as="geometry">
            <mxPoint x="2025" y="1674.0000000000002" as="sourcePoint" />
            <Array as="points">
              <mxPoint x="2053" y="1674" />
              <mxPoint x="2053" y="1704" />
            </Array>
            <mxPoint x="2025" y="1704.0000000000002" as="targetPoint" />
            <mxPoint as="offset" />
          </mxGeometry>
        </mxCell>
        <mxCell id="GUyP2fEIKevfzm-Tqjwe-96" value="" style="endArrow=block;dashed=1;endFill=0;endSize=12;html=1;rounded=0;" parent="1" edge="1">
          <mxGeometry width="160" relative="1" as="geometry">
            <mxPoint x="1900" y="1634" as="sourcePoint" />
            <mxPoint x="2385" y="1654" as="targetPoint" />
            <Array as="points">
              <mxPoint x="1900" y="1654" />
            </Array>
          </mxGeometry>
        </mxCell>
        <mxCell id="GUyP2fEIKevfzm-Tqjwe-97" value="log data into" style="text;html=1;align=center;verticalAlign=middle;resizable=0;points=[];autosize=1;strokeColor=none;fillColor=none;" parent="1" vertex="1">
          <mxGeometry x="2258" y="1630" width="90" height="30" as="geometry" />
        </mxCell>
        <mxCell id="GUyP2fEIKevfzm-Tqjwe-98" value="deliver shock" style="html=1;verticalAlign=bottom;endArrow=block;curved=0;rounded=0;" parent="1" edge="1">
          <mxGeometry width="80" relative="1" as="geometry">
            <mxPoint x="2015" y="1725" as="sourcePoint" />
            <mxPoint x="1465" y="1725" as="targetPoint" />
          </mxGeometry>
        </mxCell>
        <mxCell id="GUyP2fEIKevfzm-Tqjwe-133" value="simulateEEGSite()" style="shape=umlFrame;whiteSpace=wrap;html=1;pointerEvents=0;recursiveResize=0;container=1;collapsible=0;width=130;height=30;strokeColor=#3BF026;" parent="1" vertex="1">
          <mxGeometry x="1300" y="1230" width="1140" height="320" as="geometry" />
        </mxCell>
        <mxCell id="GUyP2fEIKevfzm-Tqjwe-138" value="pauseSession()" style="html=1;align=left;spacingLeft=2;endArrow=block;rounded=0;edgeStyle=orthogonalEdgeStyle;curved=0;rounded=0;" parent="GUyP2fEIKevfzm-Tqjwe-133" edge="1">
          <mxGeometry x="-0.0091" relative="1" as="geometry">
            <mxPoint x="725" y="130" as="sourcePoint" />
            <Array as="points">
              <mxPoint x="753" y="129.99999999999977" />
              <mxPoint x="753" y="159.99999999999977" />
            </Array>
            <mxPoint x="725" y="160" as="targetPoint" />
            <mxPoint as="offset" />
          </mxGeometry>
        </mxCell>
        <mxCell id="GUyP2fEIKevfzm-Tqjwe-140" value="unpauseSession()" style="html=1;align=left;spacingLeft=2;endArrow=block;rounded=0;edgeStyle=orthogonalEdgeStyle;curved=0;rounded=0;" parent="GUyP2fEIKevfzm-Tqjwe-133" edge="1">
          <mxGeometry x="-0.0091" relative="1" as="geometry">
            <mxPoint x="725" y="250" as="sourcePoint" />
            <Array as="points">
              <mxPoint x="753" y="249.99999999999977" />
              <mxPoint x="753" y="279.9999999999998" />
            </Array>
            <mxPoint x="725" y="280" as="targetPoint" />
            <mxPoint as="offset" />
          </mxGeometry>
        </mxCell>
        <mxCell id="GUyP2fEIKevfzm-Tqjwe-135" value="Reading Brain Frequencies" style="html=1;verticalAlign=bottom;endArrow=block;curved=0;rounded=0;" parent="1" edge="1">
          <mxGeometry width="80" relative="1" as="geometry">
            <mxPoint x="2235" y="1279" as="sourcePoint" />
            <mxPoint x="1465" y="1279" as="targetPoint" />
          </mxGeometry>
        </mxCell>
        <mxCell id="GUyP2fEIKevfzm-Tqjwe-136" value="detects connection loss" style="html=1;verticalAlign=bottom;endArrow=block;curved=0;rounded=0;" parent="1" edge="1">
          <mxGeometry width="80" relative="1" as="geometry">
            <mxPoint x="2025" y="1326.9999999999998" as="sourcePoint" />
            <mxPoint x="2235" y="1326.9999999999998" as="targetPoint" />
          </mxGeometry>
        </mxCell>
        <mxCell id="GUyP2fEIKevfzm-Tqjwe-139" value="connection restablished" style="html=1;verticalAlign=bottom;endArrow=block;curved=0;rounded=0;" parent="1" edge="1">
          <mxGeometry width="80" relative="1" as="geometry">
            <mxPoint x="2235" y="1439" as="sourcePoint" />
            <mxPoint x="2025" y="1439" as="targetPoint" />
          </mxGeometry>
        </mxCell>
      </root>
    </mxGraphModel>
  </diagram>
</mxfile>
